<svg width="22" height="22" viewBox="0 0 22 22" fill="none" xmlns="http://www.w3.org/2000/svg">
<rect width="22" height="22" rx="11" fill="#8A2A2A"/>
<g clip-path="url(#clip0)">
<path d="M16.3402 7.43822L12.0209 6.24657C11.6958 6.15698 11.3536 6.10889 11 6.10889L16.7368 9.91463H17.5825V9.06891C17.5825 8.29031 17.0563 7.63499 16.3402 7.43822Z" fill="#FFD185"/>
<path d="M15.6541 7.43822L11.8897 6.24657C11.6064 6.15698 11.3081 6.10889 11 6.10889C10.6465 6.10889 10.3042 6.15698 9.97911 6.24657L5.65984 7.43822C4.94374 7.63502 4.41748 8.29031 4.41748 9.06891V9.91463L11 12.8747L16.7368 9.06891C16.7368 8.29031 16.2782 7.63499 15.6541 7.43822V7.43822Z" fill="#FFE8C2"/>
<path d="M17.1596 9.06885L12.8746 13.3538H13.7204C16.0124 13.3538 17.884 11.5543 17.9997 9.29105C18.0058 9.17022 17.9092 9.06885 17.7883 9.06885H17.1596Z" fill="#B6502F"/>
<path d="M12.2686 9.06885C11.8015 9.06885 11.4229 9.44748 11.4229 9.91457V11.2276C11.4229 11.4553 11.2479 11.6512 11.0204 11.6619C10.7776 11.6734 10.5771 11.4799 10.5771 11.2395V9.91457C10.5771 9.44748 10.1985 9.06885 9.73142 9.06885H4.21165C4.09069 9.06885 3.99411 9.17022 4.00028 9.29105C4.11589 11.5543 5.98758 13.3538 8.2796 13.3538H12.8747C15.2412 13.3538 17.1597 11.4354 17.1597 9.06885H12.2686Z" fill="#C56A40"/>
<path d="M15.0453 14.6226V15.8912H15.891C16.3581 15.8912 16.7367 15.5125 16.7367 15.0454V14.6226H15.0453Z" fill="#FFBA48"/>
<path d="M15.8912 15.0454V14.6226H5.26331V15.0454C5.26331 15.5125 5.64196 15.8912 6.10903 15.8912H15.0455C15.5126 15.8912 15.8912 15.5125 15.8912 15.0454Z" fill="#FFD185"/>
<path d="M17.1597 15.0449H16.314L17.1597 14.1992H17.7577C17.9032 14.1992 18.0059 14.343 17.9576 14.4801C17.8418 14.8091 17.5283 15.0449 17.1597 15.0449Z" fill="#FFD185"/>
<path d="M16.3139 15.0449H4.84028C4.47168 15.0449 4.15815 14.8091 4.04234 14.4801C3.99405 14.3429 4.09678 14.1992 4.24224 14.1992H17.1596C17.1596 14.6663 16.781 15.0449 16.3139 15.0449Z" fill="#FFE8C2"/>
</g>
<defs>
<clipPath id="clip0">
<rect width="14" height="14" fill="white" transform="translate(4 4)"/>
</clipPath>
</defs>
</svg>
