<svg width="36" height="36" viewBox="0 0 36 36" fill="none" xmlns="http://www.w3.org/2000/svg">
<rect width="36" height="36" rx="18" fill="#F8F49D"/>
<path d="M25.877 25.5283C26.2773 25.5283 26.4775 25.7529 26.4775 26.2021C26.4775 26.5732 26.1943 26.9443 25.6279 27.3154C24.5732 28.0088 23.6846 28.4629 22.9619 28.6777C21.6045 29.0781 20.1787 29.2783 18.6846 29.2783C17.1904 29.2783 15.75 29.0146 14.3633 28.4873C12.9863 27.9502 11.8096 27.2031 10.833 26.2461C8.79199 24.2344 7.77148 21.6367 7.77148 18.4531C7.77148 16.9199 8.05957 15.5137 8.63574 14.2344C9.21191 12.9453 10.0078 11.8418 11.0234 10.9238C13.1719 8.98047 15.8721 8.00879 19.124 8.00879C20.9502 8.00879 22.5566 8.32129 23.9434 8.94629C25.418 9.60059 26.1553 10.1572 26.1553 10.6162C26.1553 10.8018 26.0918 10.9629 25.9648 11.0996C25.8477 11.2363 25.7109 11.3047 25.5547 11.3047C25.2422 11.3047 24.959 11.168 24.7051 10.8945C24.4512 10.6113 24.1045 10.3574 23.665 10.1328C23.2354 9.9082 22.7617 9.71289 22.2441 9.54688C21.1895 9.22461 20.2275 9.06348 19.3584 9.06348C18.499 9.06348 17.7861 9.12207 17.2197 9.23926V28.0186C17.9033 28.1357 18.5088 28.1943 19.0361 28.1943C19.5635 28.1943 20.1006 28.1602 20.6475 28.0918C21.1943 28.0234 21.7314 27.9111 22.2588 27.7549C23.4404 27.4033 24.3291 26.8857 24.9248 26.2021C25.1396 25.9482 25.3105 25.7725 25.4375 25.6748C25.5645 25.5771 25.7109 25.5283 25.877 25.5283Z" fill="#9B7512"/>
</svg>
