<svg xmlns="http://www.w3.org/2000/svg" viewBox="0 0 209.05 209.05"><defs><style>.cls-1{fill:#fff;}.cls-2{fill:#2a3d58;}.cls-3{fill:#0f2631;}</style></defs><title>ela</title><g id="图层_2" data-name="图层 2"><circle class="cls-1" cx="104.52" cy="104.52" r="104.52"/></g><g id="图层_5" data-name="图层 5"><polygon class="cls-2" points="104.52 106.91 137.91 87.64 104.52 68.25 104.52 106.91"/><polygon class="cls-3" points="104.52 106.91 71.14 87.64 104.52 68.25 104.52 106.91"/><polygon class="cls-3" points="137.91 48.98 104.52 68.25 137.91 87.64 137.91 48.98"/><polygon class="cls-2" points="137.91 48.98 171.29 68.25 137.91 87.64 137.91 48.98"/><polygon class="cls-3" points="71.14 48.98 37.76 68.25 71.14 87.64 71.14 48.98"/><polygon class="cls-2" points="71.14 48.98 104.52 68.25 71.14 87.64 71.14 48.98"/><polygon class="cls-2" points="104.52 160.07 137.91 140.8 104.52 121.41 104.52 160.07"/><polygon class="cls-3" points="104.52 160.07 71.14 140.8 104.52 121.41 104.52 160.07"/><polygon class="cls-3" points="137.91 102.14 104.52 121.41 137.91 140.8 137.91 102.14"/><polygon class="cls-2" points="137.91 102.14 171.29 121.41 137.91 140.8 137.91 102.14"/><polygon class="cls-3" points="71.14 102.14 37.76 121.41 71.14 140.8 71.14 102.14"/><polygon class="cls-2" points="71.14 102.14 104.52 121.41 71.14 140.8 71.14 102.14"/></g></svg>