<svg width="30" height="48" viewBox="0 0 30 48" fill="none" xmlns="http://www.w3.org/2000/svg">
<path d="M14.8435 0.59082V17.797C14.8435 17.8708 14.7696 17.9447 14.6958 17.9447C14.1789 18.1662 13.7358 18.3877 13.2189 18.6093C12.5542 18.9047 11.8158 19.2001 11.1512 19.5693L8.71424 20.677L6.7204 21.5631L4.28348 22.6708C3.61886 22.9662 2.95424 23.2616 2.21578 23.6308C1.69886 23.8524 1.10809 24.1477 0.591167 24.3693C0.517321 24.3693 0.517321 24.4431 0.443475 24.3693H0.369629C0.591167 24.0001 0.812706 23.7047 1.03424 23.3354C2.21578 21.3416 3.47117 19.3477 4.65271 17.3539C5.90809 15.2124 7.23732 13.0708 8.49271 10.9293C9.67424 8.93544 10.8558 6.94159 12.0373 5.02159C12.9235 3.54467 13.8096 2.14159 14.6219 0.664666C14.7696 0.664666 14.7696 0.59082 14.8435 0.59082C14.8435 0.59082 14.7696 0.59082 14.8435 0.59082Z" fill="#8A92B2"/>
<path d="M29.1694 24.3693C28.0617 25.1078 26.8802 25.7724 25.7725 26.437C22.154 28.5785 18.6094 30.6462 14.9909 32.7878C14.9171 32.7878 14.9171 32.8616 14.8433 32.8616C14.7694 32.8616 14.7694 32.7878 14.7694 32.7878V32.5662V18.1662V17.9447C14.7694 17.8708 14.8433 17.8708 14.9171 17.8708C15.2125 18.0185 15.5079 18.1662 15.8771 18.3139C16.7633 18.757 17.7233 19.1262 18.6094 19.5693C19.4217 19.9385 20.1602 20.3078 20.9725 20.6032C21.7848 20.9724 22.5233 21.3416 23.3356 21.7108C24.0002 22.0062 24.7386 22.3016 25.4033 22.6709C26.0679 22.9662 26.8063 23.2616 27.471 23.6308C27.9879 23.8524 28.5048 24.1478 29.0956 24.3693C29.0956 24.2955 29.0956 24.3693 29.1694 24.3693Z" fill="#454A75"/>
<path d="M14.8437 47.3355C14.8437 47.3355 14.7699 47.3355 14.8437 47.3355C14.7699 47.3355 14.7699 47.3355 14.696 47.2617C13.2191 45.194 11.816 43.2001 10.3391 41.1325L5.90834 34.9294C4.50526 32.9355 3.02834 30.9417 1.62526 28.874L0.517572 27.3232C0.517572 27.2494 0.443726 27.2494 0.443726 27.1755C0.517572 27.1755 0.517572 27.2494 0.591418 27.2494C2.58526 28.4309 4.65296 29.6125 6.6468 30.794C8.93603 32.1971 11.2991 33.5263 13.5883 34.9294C13.9576 35.1509 14.4006 35.3725 14.7699 35.594C14.8437 35.594 14.8437 35.6678 14.8437 35.7417V47.3355Z" fill="#8A92B2"/>
<path d="M0.443726 24.3694C0.443726 24.3694 0.517572 24.3694 0.443726 24.3694C0.517572 24.3694 0.517572 24.3694 0.443726 24.3694C0.443726 24.4432 0.443726 24.4432 0.443726 24.3694Z" fill="#808080"/>
<path d="M0.517822 24.4433C0.517822 24.3694 0.517822 24.3694 0.517822 24.4433C1.25628 24.074 1.99475 23.7787 2.73321 23.4094L5.61321 22.0802C6.35167 21.711 7.09013 21.4156 7.82859 21.0463C8.86244 20.5294 9.97013 20.0863 11.004 19.5694C11.7424 19.274 12.4809 18.9048 13.2194 18.6094C13.7363 18.3879 14.2532 18.1664 14.7701 17.871C14.844 17.871 14.844 17.7971 14.9178 17.7971V32.8617C14.844 32.9356 14.844 32.8617 14.7701 32.8617C14.5486 32.714 14.3271 32.6402 14.1794 32.4925L0.665515 24.5171C0.591668 24.4433 0.517822 24.4433 0.517822 24.4433Z" fill="#62688F"/>
<path d="M29.0958 27.1755C29.0958 27.2494 29.0958 27.2494 29.022 27.3232C24.7389 33.3786 20.4558 39.3601 16.1727 45.4155C15.7297 46.0801 15.2866 46.6709 14.8435 47.3355V47.2617V47.114V35.8155V35.594C15.8035 35.0032 16.7635 34.4125 17.7235 33.8955L29.022 27.2494C29.022 27.1755 29.0958 27.1755 29.0958 27.1755Z" fill="#62688F"/>
<path d="M14.8435 17.8707V17.723V0.812243V0.664551L29.022 24.1476C29.0958 24.2215 29.1697 24.2953 29.1697 24.3692C28.8743 24.2215 28.5789 24.0738 28.2097 23.9261C27.8404 23.7784 27.4712 23.5569 27.102 23.4092C26.8804 23.3353 26.6589 23.1876 26.3635 23.1138C25.9943 22.9661 25.5512 22.7446 25.182 22.5969C24.9604 22.523 24.7389 22.3753 24.5174 22.3015L22.9666 21.6369C22.6712 21.4892 22.4497 21.4153 22.1543 21.2676C21.785 21.1199 21.4158 20.8984 21.0466 20.7507C20.825 20.6769 20.6035 20.5292 20.382 20.4553L18.8312 19.7907C18.5358 19.643 18.3143 19.5692 18.0189 19.4215C17.6497 19.2738 17.2804 19.0522 16.9112 18.9046C16.6897 18.7569 16.3943 18.683 16.1727 18.5353L14.8435 17.8707Z" fill="#62688F"/>
</svg>
