<svg width="494" height="300" viewBox="0 0 494 300" fill="none" xmlns="http://www.w3.org/2000/svg">
<rect x="22" y="22" width="256" height="256" rx="128" fill="#6363FF"/>
<rect x="42" y="42" width="216" height="216" rx="108" fill="black"/>
<path d="M200 83H111V225H152V108H200V83Z" fill="#00A3E0"/>
<rect x="157" y="160.648" width="36" height="36" transform="rotate(-45 157 160.648)" fill="white"/>
<rect x="218" y="22" width="256" height="256" rx="128" fill="black"/>
<path d="M442.471 94.7102L437.704 86.3404C437.331 85.6844 436.81 85.1237 436.184 84.702C435.558 84.2803 434.843 84.009 434.094 83.9094C433.346 83.8097 432.584 83.8843 431.87 84.1274C431.155 84.3706 430.506 84.7756 429.973 85.3109L419.011 96.264C418.209 97.0696 417.711 98.1273 417.599 99.2582C417.488 100.389 417.771 101.524 418.401 102.47C422.398 108.578 425.601 115.171 427.933 122.088C432.29 135.02 433.507 148.803 431.483 162.298C429.459 175.792 424.252 188.612 416.293 199.696C408.334 210.78 397.851 219.811 385.71 226.042C373.57 232.272 360.121 235.524 346.476 235.529C332.428 235.567 318.589 232.132 306.19 225.529L324.731 206.978C336.22 211.324 348.749 212.123 360.697 209.273C372.646 206.424 383.465 200.056 391.756 190.993C400.048 181.929 405.43 170.588 407.207 158.433C408.985 146.279 407.076 133.871 401.728 122.813C401.388 122.105 400.884 121.489 400.257 121.016C399.63 120.543 398.898 120.228 398.124 120.096C397.35 119.964 396.556 120.02 395.807 120.259C395.059 120.498 394.38 120.913 393.825 121.469L382.729 132.489C382.137 133.08 381.707 133.812 381.478 134.616C381.249 135.42 381.23 136.27 381.423 137.084L382.376 141.068C384.016 148.048 383.583 155.355 381.13 162.093C378.677 168.83 374.31 174.705 368.565 178.996C362.821 183.287 355.948 185.808 348.792 186.248C341.635 186.689 334.505 185.031 328.277 181.478L323.387 178.675C322.453 178.137 321.366 177.923 320.297 178.066C319.228 178.209 318.237 178.701 317.477 179.466L272.186 224.747C271.692 225.242 271.309 225.836 271.063 226.49C270.817 227.145 270.713 227.844 270.759 228.542C270.805 229.239 271 229.919 271.33 230.536C271.66 231.152 272.118 231.691 272.673 232.116L279.346 237.235C298.589 252.065 322.219 260.073 346.514 259.999C365.856 259.975 384.853 254.877 401.609 245.215C418.365 235.553 432.294 221.666 442.005 204.938C451.716 188.21 456.87 169.228 456.952 149.886C457.033 130.544 452.04 111.519 442.471 94.7102V94.7102Z" fill="url(#paint0_linear)"/>
<path d="M413.663 61.7744C394.421 46.9393 370.791 38.9272 346.495 39.0005C327.143 39.0155 308.134 44.1086 291.368 53.7708C274.601 63.433 260.663 77.326 250.948 94.0616C241.232 110.797 236.078 129.79 236.001 149.141C235.924 168.492 240.926 187.525 250.509 204.337L255.275 212.698C255.651 213.353 256.172 213.913 256.798 214.335C257.425 214.756 258.14 215.028 258.889 215.128C259.638 215.228 260.399 215.155 261.115 214.914C261.83 214.673 262.481 214.27 263.016 213.737L273.959 202.793C274.755 201.986 275.25 200.931 275.361 199.803C275.472 198.675 275.193 197.543 274.57 196.597C270.569 190.491 267.365 183.898 265.037 176.978V176.978C260.68 164.047 259.463 150.264 261.487 136.769C263.511 123.274 268.718 110.455 276.677 99.3708C284.637 88.2866 295.12 79.2559 307.26 73.0251C319.4 66.7943 332.849 63.5423 346.495 63.5379C360.542 63.5061 374.378 66.9514 386.771 73.5665L368.22 92.1078C358.927 88.5857 348.918 87.3727 339.053 88.5729C329.188 89.7732 319.761 93.3507 311.584 98.9982C303.407 104.646 296.723 112.194 292.107 120.995C287.491 129.796 285.081 139.586 285.084 149.524C285.084 150.544 285.361 155.196 285.446 155.997C286.198 163.037 288.156 169.896 291.233 176.273C291.574 176.981 292.079 177.597 292.707 178.07C293.335 178.543 294.067 178.858 294.842 178.99C295.616 179.121 296.412 179.065 297.16 178.827C297.909 178.588 298.59 178.173 299.145 177.617L310.241 166.511C310.832 165.922 311.263 165.191 311.493 164.389C311.724 163.587 311.745 162.739 311.557 161.926L310.604 157.932C308.961 150.952 309.393 143.644 311.846 136.905C314.299 130.167 318.666 124.292 324.412 120.001C330.157 115.71 337.031 113.191 344.188 112.752C351.346 112.314 358.476 113.975 364.702 117.532L369.593 120.334C370.528 120.868 371.614 121.079 372.681 120.936C373.749 120.794 374.74 120.304 375.503 119.543L420.784 74.2623C421.279 73.7677 421.663 73.1732 421.91 72.5184C422.157 71.8636 422.261 71.1636 422.216 70.4652C422.171 69.7668 421.977 69.0861 421.648 68.4685C421.319 67.851 420.862 67.3107 420.307 66.884L413.663 61.7744Z" fill="url(#paint1_linear)"/>
<defs>
<linearGradient id="paint0_linear" x1="307.515" y1="267.073" x2="463.09" y2="111.497" gradientUnits="userSpaceOnUse">
<stop stop-color="#B090F5"/>
<stop offset="1" stop-color="#5FBFFF"/>
</linearGradient>
<linearGradient id="paint1_linear" x1="229.889" y1="187.541" x2="385.474" y2="31.9653" gradientUnits="userSpaceOnUse">
<stop stop-color="#68D7FA"/>
<stop offset="1" stop-color="#4EE498"/>
</linearGradient>
</defs>
</svg>
