<svg width="494" height="300" viewBox="0 0 494 300" fill="none" xmlns="http://www.w3.org/2000/svg">
<rect x="22" y="22" width="256" height="256" rx="128" fill="#005FFA"/>
<rect x="42" y="42" width="216" height="216" rx="108" fill="black"/>
<path d="M200 83H111V225H152V108H200V83Z" fill="#00A3E0"/>
<rect x="157" y="160.648" width="36" height="36" transform="rotate(-45 157 160.648)" fill="white"/>
<path fill-rule="evenodd" clip-rule="evenodd" d="M395.632 224.163H368.381V177.251C368.381 169.738 362.301 163.632 354.787 163.632H354.774H315.606C300.566 163.632 288.368 151.434 288.368 136.394V75.8496H315.606V122.774C315.606 130.288 321.699 136.394 329.213 136.394H368.381C383.421 136.406 395.606 148.592 395.619 163.632L395.632 224.163ZM316.554 224.163H289.302V178.416C304.342 178.416 316.541 190.602 316.541 205.654L316.554 224.163ZM367.446 75.8368H394.685V121.61C379.632 121.61 367.446 109.411 367.446 94.3712V75.8368ZM342 22C271.306 22 214 79.3184 214 150C214 220.682 271.306 278 342 278C412.694 278 470 220.694 470 150C470 79.3056 412.694 22 342 22Z" fill="#005FFA"/>
</svg>
