<svg xmlns="http://www.w3.org/2000/svg" viewBox="0 0 209.05 209.05"><defs><style>.cls-1{fill:#fff;}.cls-2{fill:#1e1e1e;}.cls-3{fill:#e6007a;}</style></defs><title>hdot</title><g id="图层_2" data-name="图层 2"><circle class="cls-1" cx="104.52" cy="104.52" r="104.52"/></g><g id="图层_4" data-name="图层 4"><path class="cls-2" d="M104.77,31.09A56.41,56.41,0,0,0,48.59,87.28a57.79,57.79,0,0,0,3,18.25,7.73,7.73,0,1,0,14.66-4.93A36.94,36.94,0,0,1,64,86.28,40.53,40.53,0,1,1,107,128s-7.89.48-11.81,1a39.23,39.23,0,0,0-4.29.86.53.53,0,0,1-.74,0h0a.5.5,0,0,1,0-.63l1.22-6.66,7.4-33.31a7.7,7.7,0,1,0-15.06-3.23S66.1,167.48,66.1,168.22a7.4,7.4,0,0,0,5.35,9l.13,0H72a7.4,7.4,0,0,0,9-5.32,1.17,1.17,0,0,0,0-.2,2.16,2.16,0,0,1,0-.36c.22-1,2.44-11.81,2.44-11.81A20,20,0,0,1,100,143.83c1.71-.26,8.85-.74,8.85-.74a56.15,56.15,0,0,0-4.11-112Z" transform="translate(0.5 -0.72)"/><path class="cls-3" d="M108.18,160.64a9.36,9.36,0,0,0-11.08,7.25l0,.15a9.32,9.32,0,0,0,7.13,11.09h.28a9.17,9.17,0,0,0,11.07-6.77l0-.11v-.52A9.69,9.69,0,0,0,108.18,160.64Z" transform="translate(0.5 -0.72)"/></g></svg>