<svg xmlns="http://www.w3.org/2000/svg" viewBox="0 0 209.05 209.05"><defs><style>.cls-1{fill:#fff;}.cls-2{fill:#343434;}.cls-3{fill:#8c8c8c;}.cls-4{fill:#3c3c3b;}.cls-5{fill:#141414;}.cls-6{fill:#393939;}</style></defs><title>heth</title><g id="图层_2" data-name="图层 2"><circle class="cls-1" cx="104.52" cy="104.52" r="104.52"/></g><g id="图层_3" data-name="图层 3"><g id="Layer_1"><g id="_1421394342400" data-name=" 1421394342400"><polygon class="cls-2" points="103.9 31.61 102.92 34.94 102.92 131.36 103.9 132.33 148.66 105.88 103.9 31.61"/><polygon class="cls-3" points="103.9 31.61 59.15 105.88 103.9 132.33 103.9 85.53 103.9 31.61"/><polygon class="cls-4" points="103.9 140.81 103.35 141.48 103.35 175.82 103.9 177.43 148.69 114.36 103.9 140.81"/><polygon class="cls-3" points="103.9 177.43 103.9 140.81 59.15 114.36 103.9 177.43"/><polygon class="cls-5" points="103.9 132.33 148.66 105.88 103.9 85.53 103.9 132.33"/><polygon class="cls-6" points="59.15 105.88 103.9 132.33 103.9 85.53 59.15 105.88"/></g></g></g></svg>