<svg xmlns="http://www.w3.org/2000/svg" viewBox="0 0 209.05 209.05"><defs><style>.cls-1{fill:#fff;}.cls-2{fill:#2c7df7;}</style></defs><title>hxtz</title><g id="图层_2" data-name="图层 2"><circle class="cls-1" cx="104.52" cy="104.52" r="104.52"/></g><g id="图层_6" data-name="图层 6"><g id="Layer_2" data-name="Layer 2"><path class="cls-2" d="M119.72,176.3q-15.28,0-22.31-7.36a22.73,22.73,0,0,1-7-15.86,10.49,10.49,0,0,1,1.23-5.24A9,9,0,0,1,95,144.49a11.65,11.65,0,0,1,10.42,0,8.85,8.85,0,0,1,3.33,3.35,10.29,10.29,0,0,1,1.27,5.24,10,10,0,0,1-1.79,6.13,8.31,8.31,0,0,1-4.24,3.11,11.65,11.65,0,0,0,6.7,4.17,33.07,33.07,0,0,0,9.12,1.31,20.33,20.33,0,0,0,11.49-3.43,20.08,20.08,0,0,0,7.49-10.15A44.1,44.1,0,0,0,141.23,139a42,42,0,0,0-2.68-15.8,19.45,19.45,0,0,0-7.74-9.81,20.59,20.59,0,0,0-11.15-3.19,21.21,21.21,0,0,0-9.66,3.28l-7.16,3.59v-3.59L135,70.33H90.41v44.81a16,16,0,0,0,2.45,9.16,8.48,8.48,0,0,0,7.5,3.6,12.56,12.56,0,0,0,7.4-2.61,27.06,27.06,0,0,0,6.21-6.38,2.15,2.15,0,0,1,.8-1.07,1.65,1.65,0,0,1,1.08-.41,3.75,3.75,0,0,1,2.1.9,4.44,4.44,0,0,1,1.13,3,16.8,16.8,0,0,1-.4,2.23,21.57,21.57,0,0,1-7.65,9.5,19,19,0,0,1-10.73,3.26q-14.49,0-20.08-5.71A21.37,21.37,0,0,1,74.69,115V70.33H52V62H74.79V43l-5.22-5.23V33.54H84.72l5.69,2.94V62l58.94-.18,5.86,5.89L119.07,104a24.8,24.8,0,0,1,6.83-1.65,29.76,29.76,0,0,1,13.21,3.77,27.19,27.19,0,0,1,11.38,10.16,36.11,36.11,0,0,1,5.13,12.24A52.17,52.17,0,0,1,156.84,139a43.78,43.78,0,0,1-4.46,19.43A28.48,28.48,0,0,1,139,171.84,43.28,43.28,0,0,1,119.72,176.3Z" transform="translate(0.1 -0.4)"/></g></g></svg>