<svg width="36" height="36" viewBox="0 0 36 36" fill="none" xmlns="http://www.w3.org/2000/svg">
<rect width="36" height="36" rx="18" fill="#B06427"/>
<path d="M7.32422 26.1758C7.17578 26.1602 7.0625 26.0938 6.98438 25.9766C6.90625 25.8594 6.875 25.7305 6.89062 25.5898C6.92969 25.3477 7.00391 25.125 7.11328 24.9219C7.22266 24.7188 7.30078 24.5664 7.34766 24.4648C7.40234 24.3633 7.45703 24.25 7.51172 24.125L7.95703 23.0938L12.7734 8.66797L17.9531 18.6758L22.9805 8.66797L28.9922 26H22.6992L19.793 17.0469L15.293 26.4219L10.5586 17.9844L8.91797 23.1055C8.66016 23.6758 8.47656 24.1602 8.36719 24.5586C8.25781 24.957 8.16797 25.2656 8.09766 25.4844C7.94141 25.9766 7.68359 26.207 7.32422 26.1758Z" fill="#F2D5BD"/>
</svg>
