<svg xmlns="http://www.w3.org/2000/svg" viewBox="0 0 209.05 209.05"><defs><style>.cls-1{fill:#fff;}.cls-2,.cls-3{fill:#ff007a;}.cls-3{fill-rule:evenodd;}</style></defs><title>uni</title><g id="图层_2" data-name="图层 2"><circle class="cls-1" cx="104.52" cy="104.52" r="104.52"/></g><g id="图层_7" data-name="图层 7"><path class="cls-2" d="M90.54,65.44c-1.58-.23-1.65-.3-.9-.38a25.14,25.14,0,0,1,7,.6c5.4,1.28,10.28,4.58,15.46,10.36l1.35,1.57,2-.3a41.89,41.89,0,0,1,24,3,31.17,31.17,0,0,1,5.4,3.16,7.25,7.25,0,0,1,.52,2.1c.53,3.52.3,6.15-.82,8.18a2.2,2.2,0,0,0-.23,2.4,2.26,2.26,0,0,0,2,1.27c1.8,0,3.68-2.85,4.58-6.82l.37-1.58.68.75c3.82,4.28,6.83,10.21,7.28,14.41l.15,1.12-.68-1a12.69,12.69,0,0,0-3.6-3.83c-2.55-1.73-5.25-2.25-12.38-2.63-6.46-.37-10.13-.9-13.74-2.1-6.15-2-9.3-4.65-16.58-14.33a68.5,68.5,0,0,0-7.28-8.55A25.43,25.43,0,0,0,90.54,65.44Z" transform="translate(0.35 -0.57)"/><path class="cls-2" d="M146.44,75a16.34,16.34,0,0,1,1.35-6.46,5.32,5.32,0,0,1,.68-1.27c.08,0-.07.52-.3,1.12a14.3,14.3,0,0,0-.3,6.61c.53,3.37.75,3.82,4.35,7.5,1.65,1.73,3.6,3.9,4.35,4.8l1.28,1.65-1.28-1.2a44.48,44.48,0,0,0-6-4.72c-.52-.3-.6-.3-1,.07s-.38.75-.38,2.93a16,16,0,0,1-1.65,7.65c-.6,1.13-.68.9-.15-.37.37-1,.45-1.43.45-4.66,0-6.52-.75-8.1-5.33-10.73-1.12-.67-3.07-1.65-4.2-2.17a17.92,17.92,0,0,1-2-1,33.78,33.78,0,0,1,6.31,1.88c2.62,1,3.07,1.12,3.37,1C146.22,77.44,146.37,76.84,146.44,75Z" transform="translate(0.35 -0.57)"/><path class="cls-2" d="M93.61,86.15C90.46,81.8,88.44,75,88.89,70L89,68.44l.75.15a17.34,17.34,0,0,1,4.8,1.8c3,1.8,4.35,4.28,5.63,10.43.37,1.8.9,3.9,1.12,4.58a27.07,27.07,0,0,0,3,5.4c.82,1.2.3,1.8-1.58,1.65C99.92,92.15,96.09,89.52,93.61,86.15Z" transform="translate(0.35 -0.57)"/><path class="cls-2" d="M142.62,118.79c-14.86-6-20.11-11.18-20.11-20,0-1.28.07-2.33.07-2.33a13.33,13.33,0,0,1,1.28,1c3,2.4,6.37,3.45,15.76,4.8a66.45,66.45,0,0,1,11.48,2.4c9.08,3,14.7,9.16,16.06,17.49a30.52,30.52,0,0,1-.45,9.38c-.53,1.87-2,5.33-2.41,5.4-.07,0-.22-.37-.22-1a12.2,12.2,0,0,0-4.35-8.48C156.57,124.79,152.52,122.77,142.62,118.79Z" transform="translate(0.35 -0.57)"/><path class="cls-2" d="M132.11,121.27a17.23,17.23,0,0,0-.75-3.15L131,117l.67.83a12.93,12.93,0,0,1,2.4,4.35c.53,1.42.53,1.87.53,4.2a9.54,9.54,0,0,1-.53,4,13.59,13.59,0,0,1-3.15,5c-2.7,2.78-6.23,4.28-11.26,5-.9.08-3.45.3-5.7.45-5.63.3-9.38.9-12.76,2.1-.45.15-.9.3-1,.23s2.17-1.5,4-2.4c2.63-1.28,5.33-1.95,11.26-3a52.11,52.11,0,0,0,6.68-1.35C129.63,134.1,133.31,128.32,132.11,121.27Z" transform="translate(0.35 -0.57)"/><path class="cls-2" d="M138.94,133.35a17.53,17.53,0,0,1-1.35-12.16c.15-.37.3-.75.45-.75a3.28,3.28,0,0,1,1.05.53c.9.6,2.78,1.65,7.58,4.27,6.08,3.31,9.53,5.86,11.93,8.78a18.61,18.61,0,0,1,4,9.08,29.77,29.77,0,0,1-.38,8.93,22.09,22.09,0,0,1-10.88,14.41,10.5,10.5,0,0,1-1.57.75,5.66,5.66,0,0,1,.67-1.65,14.9,14.9,0,0,0,.68-11.63c-.83-2.55-2.55-5.63-6-10.81C141,137.1,140,135.53,138.94,133.35Z" transform="translate(0.35 -0.57)"/><path class="cls-2" d="M83,156.31a40.87,40.87,0,0,1,18.69-9,28,28,0,0,1,9.68.37c4,1,7.58,3.3,9.45,6.08s2.63,5,3.46,10.21c.3,2,.67,4.12.75,4.57a10,10,0,0,0,3.3,5.93c2.33,1.73,6.38,1.8,10.35.3a5,5,0,0,1,1.28-.37c.15.15-1.88,1.5-3.23,2.17a10.55,10.55,0,0,1-5.4,1.28c-3.6,0-6.68-1.88-9.15-5.63a41.63,41.63,0,0,1-2.48-4.95c-2.63-6.08-4-7.88-7.06-9.91a9.25,9.25,0,0,0-8.78-.82,5.65,5.65,0,0,0-2,8.78,7.76,7.76,0,0,0,4.28,2.25A4.58,4.58,0,0,0,111.4,163a3.6,3.6,0,0,0-2.48-3.68c-2.4-1.05-5,.15-5,2.48a2.06,2.06,0,0,0,1.43,2c.6.3.6.3.15.22-2.18-.45-2.71-3.15-1-4.88,2.1-2.1,6.53-1.2,8,1.73a7.83,7.83,0,0,1,.15,5.1,7,7,0,0,1-8.55,4.06c-2.48-.68-3.53-1.36-6.53-4.43-5.26-5.41-7.28-6.46-14.79-7.58l-1.42-.23Z" transform="translate(0.35 -0.57)"/><path class="cls-3" d="M43.56,35.57C61.05,56.81,88,89.82,89.34,91.63c1.12,1.5.67,2.92-1.2,4a11.5,11.5,0,0,1-4.28,1.2,5.42,5.42,0,0,1-3.6-1.57c-.68-.68-3.61-5-10.21-15.24-5-7.88-9.3-14.4-9.38-14.48-.3-.15-.3-.15,8.86,16.21,5.77,10.28,7.65,14,7.65,14.41,0,1-.3,1.5-1.5,2.85-2,2.25-2.93,4.8-3.6,10.13-.75,5.93-2.78,10.13-8.56,17.26-3.37,4.2-3.9,4.95-4.73,6.68a12.68,12.68,0,0,0-1.5,6,18.73,18.73,0,0,0,1,7.36,25,25,0,0,0,3.6,7.05c1.73,2.7,2.78,4.73,2.78,5.48,0,.6.15.6,2.85,0,6.45-1.5,11.78-4.05,14.71-7.21a6.79,6.79,0,0,0,2.25-5.7,6.12,6.12,0,0,0-.53-3.15c-.75-1.65-2.17-3-5.25-5.1-4.05-2.78-5.78-5-6.23-8-.37-2.55.08-4.28,2.33-9s2.93-6.9,3.3-11.85c.23-3.16.6-4.43,1.5-5.41s1.8-1.42,4.13-1.72c3.83-.53,6.3-1.5,8.25-3.38a7,7,0,0,0,2.55-5.48l.08-1.72-1-1.06C90.09,86.07,41.23,32.34,41,32.34S42.13,33.77,43.56,35.57Zm23,106.71a3.11,3.11,0,0,0-1-4.13c-1.27-.82-3.22-.45-3.22.68a.77.77,0,0,0,.6.75c.67.37.75.75.22,1.57s-.52,1.58.15,2.1C64.42,144.08,65.85,143.63,66.6,142.28Z" transform="translate(0.35 -0.57)"/><path class="cls-3" d="M97,102.81a6.63,6.63,0,0,0-4,4.42,6.53,6.53,0,0,0,.37,4.06c.83,1,1.58,1.35,3.68,1.35,4.13,0,7.66-1.8,8-4,.38-1.8-1.2-4.28-3.38-5.4A7.58,7.58,0,0,0,97,102.81Zm4.8,3.75A1.68,1.68,0,0,0,101,104c-2-1.28-5.1-.23-5.1,1.72,0,1,1.58,2,3.08,2A4.14,4.14,0,0,0,101.79,106.56Z" transform="translate(0.35 -0.57)"/></g></svg>