<svg width="10" height="18" viewBox="0 0 10 18" fill="none" xmlns="http://www.w3.org/2000/svg">
<path d="M9.83113 8.41162L5.86213 17.4101C5.78387 17.5855 5.65707 17.7345 5.49691 17.8391C5.33676 17.9437 5.15005 17.9996 4.95918 18C4.88935 17.9983 4.81971 17.9916 4.75081 17.98C4.52852 17.9319 4.32937 17.8083 4.18668 17.63C4.04398 17.4516 3.96641 17.2293 3.96693 17.0002V11.0012H0.990182C0.824683 11.0008 0.661896 10.9588 0.516647 10.8788C0.371397 10.7989 0.248298 10.6836 0.158554 10.5435C0.0688095 10.4034 0.0152709 10.2429 0.00281463 10.0766C-0.00964162 9.91031 0.0193791 9.74352 0.0872345 9.59142L4.05624 0.592934C4.14754 0.383131 4.30816 0.211689 4.51078 0.107783C4.7134 0.00387644 4.94549 -0.0260735 5.16756 0.0230308C5.38985 0.0711408 5.589 0.194715 5.73169 0.373077C5.87438 0.551439 5.95196 0.773767 5.95143 1.00287V7.00185H8.92818C9.09368 7.0022 9.25647 7.04426 9.40172 7.12419C9.54697 7.20412 9.67007 7.31939 9.75981 7.45951C9.84956 7.59963 9.9031 7.76014 9.91555 7.92643C9.92801 8.09272 9.89899 8.25951 9.83113 8.41162Z" fill="#BDB780"/>
</svg>
