<svg width="30" height="30" viewBox="0 0 30 30" fill="none" xmlns="http://www.w3.org/2000/svg">
<path d="M30 15C30 23.2441 23.2441 30 15 30C9.60342 30 4.59389 27.0763 1.93954 22.4707L3.45108 21.5918C5.80673 25.6524 10.2363 28.2422 15 28.2422C22.2773 28.2422 28.2422 22.2773 28.2422 15H30Z" fill="#CFC24F"/>
<path d="M28.0605 7.5293L26.5489 8.4082C24.1933 4.34761 19.7637 1.75781 15 1.75781C7.7227 1.75781 1.75781 7.7227 1.75781 15H0C0 6.75591 6.75591 0 15 0C20.3966 0 25.4061 2.92374 28.0605 7.5293Z" fill="#4FDAB8"/>
<path d="M14.832 6.33203C10.1492 6.33203 6.33203 10.1492 6.33203 14.832C6.33203 19.5149 10.1492 23.332 14.832 23.332C19.5149 23.332 23.332 19.5149 23.332 14.832C23.332 10.1492 19.5149 6.33203 14.832 6.33203Z" fill="#E1ECFF"/>
<path d="M15.3666 14.5357H14.0069C13.3824 14.5357 12.8739 14.0272 12.8739 13.4026C12.8739 12.7781 13.3824 12.2696 14.0069 12.2696H15.14C15.8896 12.2696 16.4997 12.8796 16.4997 13.6292H17.4061C17.4061 12.3797 16.3895 11.3631 15.14 11.3631V10.4567H14.2335V11.3631H14.0069C12.8825 11.3631 11.9674 12.2782 11.9674 13.4026C11.9674 14.5271 12.8825 15.4421 14.0069 15.4421H15.3666C15.9911 15.4421 16.4997 15.9506 16.4997 16.5752C16.4997 17.1997 15.9911 17.7082 15.3666 17.7082H14.2335C13.4839 17.7082 12.8739 17.0982 12.8739 16.3486H11.9674C11.9674 17.5981 12.984 18.6147 14.2335 18.6147V19.5211H15.14V18.6147H15.3666C16.4911 18.6147 17.4061 17.6996 17.4061 16.5752C17.4061 15.4507 16.4911 14.5357 15.3666 14.5357Z" fill="#131A26"/>
<path d="M3.57422 26.4258H1.81641V21.1523H7.08984V22.9102H3.57422V26.4258Z" fill="#CFC24F"/>
<path d="M28.1836 8.84766H22.9102V7.08984H26.4258V3.57422H28.1836V8.84766Z" fill="#4FDAB8"/>
</svg>
