<svg width="72" height="72" viewBox="0 0 72 72" fill="none" xmlns="http://www.w3.org/2000/svg">
<path d="M60.3311 0H27.4199V44.3994H71.8554V11.4882C71.8554 5.18415 66.6677 0 60.3672 0C60.3564 0 60.342 0 60.3311 0V0Z" fill="#59A08F"/>
<path d="M17.1601 0H11.4882C5.18776 0 0 5.18776 0 11.4882V17.1601H17.1601V0Z" fill="#59A08F"/>
<path d="M0 27.42H17.1601V44.58H0V27.42Z" fill="#59A08F"/>
<path d="M54.84 71.8555H60.5118C66.8159 71.8555 72 66.6677 72 60.3673C72 60.3565 72 60.342 72 60.3312V54.84H54.84V71.8555Z" fill="#59A08F"/>
<path d="M27.4199 54.84H44.58V72H27.4199V54.84Z" fill="#59A08F"/>
<path d="M0 54.84V60.5118C0 66.8123 5.18776 72 11.4882 72H17.1601V54.84H0Z" fill="#59A08F"/>
</svg>
