<svg width="66" height="62" viewBox="0 0 66 62" fill="none" xmlns="http://www.w3.org/2000/svg">
<g clip-path="url(#clip0)">
<path d="M4.875 12.4796V47.6359H59.7188C59.7188 43.9937 59.7188 13.5765 59.7188 12.4796H4.875Z" fill="#282B33"/>
<path d="M33 26.5421C34.5469 26.5421 35.8125 27.7937 35.8125 29.3546C35.8125 30.9155 34.5469 32.1671 33 32.1671C31.4531 32.1671 30.1875 30.9155 30.1875 29.3546C30.1875 27.7937 31.4391 26.5421 33 26.5421Z" fill="#57606F"/>
<path d="M59.7188 47.6359H63.9375C63.9375 49.5765 63.15 51.3343 61.8844 52.614C60.6187 53.8937 58.8609 54.6671 56.9062 54.6671H7.6875C3.80625 54.6671 0.65625 51.5171 0.65625 47.6359H4.875H59.7188Z" fill="#3C3B3D"/>
<path d="M18.9375 39.1984V34.9796H16.125V39.1984H18.9375ZM20.3438 39.1984H23.1562V30.7609H20.3438V39.1984ZM14.7188 39.1984V32.1671H11.9062V39.1984H14.7188ZM6.28125 39.1984V36.3859H3.46875V39.1984H6.28125ZM7.6875 39.1984H10.5V33.5734H7.6875V39.1984ZM25.9688 27.9484V42.0108H4.875H0.65625V27.9484H4.875H25.9688Z" fill="#97A6C0"/>
<path d="M47.7656 29.3546C44.2641 29.3546 41.4375 32.1812 41.4375 35.6827C41.4375 39.1843 44.2641 42.0108 47.7656 42.0108C51.2672 42.0108 54.0938 39.1843 54.0938 35.6827C54.0938 32.1812 51.2672 29.3546 47.7656 29.3546Z" fill="white"/>
<path d="M65.3438 2.63586V22.3234H59.7188H25.9688V12.4796V2.63586H65.3438Z" fill="#7D899E"/>
<path d="M47.6391 34.839V33.7984C47.2453 33.8265 47.0484 33.9953 47.0484 34.2906C47.0484 34.614 47.3156 34.7406 47.6391 34.839ZM48.0328 36.414V37.4265C48.4688 37.4125 48.6797 37.2578 48.6797 36.9765C48.6797 36.8359 48.6234 36.7093 48.4969 36.639C48.3703 36.5687 48.2297 36.4703 48.0328 36.414ZM48.0328 34.9515C49.0594 35.2468 50.1703 35.4578 50.1703 36.8359C50.1703 38.0172 49.3125 38.6078 48.1313 38.664V39.6484H47.5547V38.664C46.7953 38.5937 46.0078 38.3547 45.375 37.9328L45.9797 36.7234C46.0922 36.8781 46.9078 37.3 47.6531 37.4125V36.2875C46.6266 35.964 45.6281 35.7531 45.6281 34.5156C45.6281 33.5172 46.275 32.7156 47.5547 32.575V31.7172H48.1313V32.575C48.6094 32.6172 49.2141 32.7718 50.0016 33.2218L49.3969 34.375C49.3125 34.2625 48.6234 33.8968 48.0469 33.8125L48.0328 34.9515Z" fill="#313A52"/>
<g clip-path="url(#clip1)">
<path d="M20.3438 30.7609H23.1562V39.1984H20.3438V30.7609Z" fill="#57606F"/>
<path d="M16.125 34.9796H18.9375V39.1984H16.125V34.9796Z" fill="#57606F"/>
<path d="M11.9062 32.1671H14.7188V39.1984H11.9062V32.1671Z" fill="#57606F"/>
</g>
<path d="M14.2406 2.29839L12.2437 4.2812L10.2609 2.29839L12.2437 0.301514L14.2406 2.29839Z" fill="#7D899E"/>
<path d="M14.2406 6.26406L12.2437 8.26094L10.2609 6.26406L12.2437 4.28125L14.2406 6.26406Z" fill="#7D899E"/>
<path d="M7.6875 33.5734H10.5V39.1984H7.6875V33.5734Z" fill="#57606F"/>
<path d="M10.2609 2.29839L8.26406 4.2812L6.28125 2.29839L8.26406 0.301514L10.2609 2.29839Z" fill="#7D899E"/>
<path d="M10.2593 6.26208L8.27084 8.25052L6.2824 6.26208L8.27084 4.27365L10.2593 6.26208Z" fill="#7D899E"/>
<path d="M3.46875 36.3859H6.28125V39.1984H3.46875V36.3859Z" fill="#57606F"/>
<path d="M59.4657 6.86868L53.8407 7.89524C53.0813 8.03587 52.5751 8.76712 52.7157 9.52649C52.8563 10.2859 53.5876 10.7921 54.347 10.6515L56.161 10.3281L52.4907 14.7296L46.5423 9.96243C46.247 9.72337 45.8673 9.62493 45.4876 9.66712C45.1079 9.7093 44.7704 9.92024 44.5454 10.2156L41.1704 14.7156L36.6704 11.3406C36.1079 10.9187 35.3204 10.9749 34.8282 11.4671L29.2032 17.0921C28.6548 17.6406 28.6548 18.5265 29.2032 19.0749C29.4844 19.3562 29.836 19.4827 30.2016 19.4827C30.5673 19.4827 30.9188 19.3421 31.2001 19.0749L35.9673 14.3077L40.622 17.7952C41.2407 18.2593 42.1266 18.1327 42.5907 17.514L45.9376 13.0562L51.8298 17.7812C52.4345 18.2593 53.2923 18.1749 53.7845 17.5843L58.0735 12.4374L57.9891 13.7874C57.947 14.5609 58.5376 15.2359 59.311 15.2781H59.3954C60.1266 15.2781 60.7454 14.7015 60.8016 13.9562C60.872 12.7609 61.1391 8.4718 61.1391 8.30305C61.1532 7.40305 60.3657 6.72805 59.4657 6.86868Z" fill="white"/>
<path d="M62.5312 61.6984H3.46875C2.69531 61.6984 2.0625 61.0656 2.0625 60.2921C2.0625 59.5187 2.69531 58.8859 3.46875 58.8859H62.5312C63.3047 58.8859 63.9375 59.5187 63.9375 60.2921C63.9375 61.0656 63.3047 61.6984 62.5312 61.6984Z" fill="#3C3B3D"/>
</g>
<defs>
<clipPath id="clip0">
<rect width="64.6875" height="61.3969" fill="white" transform="translate(0.65625 0.301514)"/>
</clipPath>
<clipPath id="clip1">
<rect width="11.25" height="8.4375" fill="white" transform="translate(11.9062 30.7609)"/>
</clipPath>
</defs>
</svg>
