<svg id="Layer_1" data-name="Layer 1" xmlns="http://www.w3.org/2000/svg" viewBox="0 0 444.28 128.65"><defs><style>.cls-1{fill:#00a3e0;}.cls-2{fill:#fff;}.cls-3{fill:#6363ff;}</style></defs><title>logo</title><polygon class="cls-1" points="90 31.04 64.7 31.04 44.54 31.04 44.54 43.59 44.54 102.55 64.7 102.55 64.7 43.59 90 43.59 90 31.04"/><rect class="cls-2" x="71.99" y="61.35" width="18.02" height="18.02" transform="translate(-26.03 77.89) rotate(-45)"/><path class="cls-3" d="M64.32,128.65a64.33,64.33,0,1,1,64.33-64.33A64.4,64.4,0,0,1,64.32,128.65Zm0-119.14a54.81,54.81,0,1,0,54.81,54.81A54.88,54.88,0,0,0,64.32,9.51Z"/><polygon class="cls-2" points="234.92 39.56 234.92 24.9 205.24 24.9 182.32 24.9 182.32 39.56 182.32 108.44 205.24 108.44 205.24 39.56 234.92 39.56"/><rect class="cls-2" x="211.98" y="60.31" width="21.06" height="21.06" transform="translate(15.08 178.08) rotate(-45)"/><polygon class="cls-2" points="249.56 47.72 242.09 47.72 242.09 59 249.56 59 249.56 108.12 266.85 108.12 266.85 59 266.85 47.72 249.56 47.72"/><rect class="cls-2" x="280.94" y="25.9" width="17.29" height="82.22"/><path class="cls-2" d="M382.93,108.12l6.23-17h28.7l6.23,17h20.19l-31-82.93H399.11l-31,82.93Zm20.58-56.26L413.81,80h-20.6Z"/><rect class="cls-2" x="247.66" y="24.15" width="15.8" height="15.8" transform="translate(52.18 190.08) rotate(-45)"/><path class="cls-2" d="M360.76,34.15c-6.85-6.38-14.71-9-33.81-9H309.67v83h18.2c15.05,0,25.77-3.48,32.87-10.08s11.44-19.25,11.44-33C372.18,49.89,368,40.75,360.76,34.15Zm-10,54.06,0,.05-.05,0c-4.37,4.34-9.75,6.54-22.8,6.54H327V38.67c19.22.08,20.64,1.49,23.75,4.57l0,0,.05,0c3.26,3.18,6.6,8.2,6.6,21.31C357.39,76.4,354,85.1,350.76,88.21Z"/></svg>