<svg width="224" height="36" viewBox="0 0 224 36" fill="none" xmlns="http://www.w3.org/2000/svg">
<g clip-path="url(#clip0)">
<path d="M32.022 29.2882L30.1229 26.5791L28.1828 23.8137L26.1052 20.8479C25.7143 21.9524 25.1005 22.9647 24.3021 23.8221L26.1345 26.4371L27.9461 29.0239L29.7681 31.6222L32.8359 36.0009H36.7263L32.022 29.2882Z" fill="#4F789C"/>
<path d="M25.0033 31.0933L23.1894 28.5065L21.3551 25.8882C20.2992 26.3346 19.1642 26.5641 18.0178 26.563H17.9335L20.0226 29.5434L21.9627 32.313L23.864 35.0241L24.5486 36.0009H28.4409L26.8236 33.6927L25.0033 31.0933Z" fill="#4F789C"/>
<path d="M25.235 1.51526L35.9603 16.8156C35.5158 9.95748 31.231 4.14704 25.235 1.51526Z" fill="white"/>
<path d="M20.4638 6.52631L24.9845 12.9775C25.0345 13.0464 25.0826 13.1181 25.1307 13.1862L29.6241 19.5916V19.5935L31.9992 22.9831L34.1218 26.0133C34.6998 24.8531 35.1498 23.6334 35.4638 22.3758L32.8489 18.646L22.4528 3.81524L19.8441 0.093912C18.5552 -0.0379119 17.2558 -0.0309363 15.9684 0.114719L18.0867 3.13705L20.4638 6.52631Z" fill="white"/>
<path d="M12.8398 7.46962L14.6702 10.0826C15.7292 9.63384 16.8677 9.40318 18.0178 9.40438H18.0845L16.0058 6.43884L14.0629 3.66929L12.1697 0.96637C11.1441 1.31656 10.1527 1.76015 9.20813 2.29154L11.0262 4.88367L12.8398 7.46962Z" fill="white"/>
<path d="M7.83909 12.1593V12.1613L9.92539 15.1336C10.3138 14.0265 10.9271 13.0118 11.7266 12.1531V12.1509L9.89418 9.53794L8.08258 6.95115V6.94918L6.26255 4.3548C5.44079 5.06187 4.68429 5.84142 4.0022 6.68404L5.90152 9.39314L7.83909 12.1593Z" fill="white"/>
<path d="M13.5826 32.1744C7.54471 30.2858 3.15364 24.6423 3.15364 17.9929C3.15364 17.7679 3.15785 17.543 3.16826 17.318V17.3161C3.23365 15.8378 3.52212 14.378 4.02387 12.986L1.89708 9.95129C1.31632 11.1075 0.863752 12.3238 0.547447 13.5784C0.183001 15.0244 -0.000880977 16.5099 3.17321e-06 18.001C3.17321e-06 18.3747 0.0104066 18.7484 0.0354309 19.1156C0.45719 26.026 4.77938 31.8823 10.8277 34.5121C13.7353 35.7722 16.9235 36.2443 20.0715 35.8811L17.9447 32.8467C16.4653 32.8412 14.995 32.6146 13.5826 32.1744Z" fill="#4FDAB8"/>
<path d="M6.28425 17.9928C6.28425 23.6216 10.2727 28.3364 15.5717 29.4613L6.397 16.371C6.32139 16.9083 6.28371 17.4503 6.28425 17.9928Z" fill="#4FDAB8"/>
<path d="M1.78425 17.25C1.78425 28.5375 9.78227 33.6151 20.4083 35.871L2.01035 9.62103C1.85873 10.6985 1.78318 11.7852 1.78425 12.8732L1.78425 17.25Z" fill="#4FDAB8"/>
<path d="M22.5757 3.82566C28.6136 5.7143 33.0047 11.3577 33.0047 18.0072C33.0047 18.2321 33.0005 18.4571 32.9901 18.682V18.684C32.9247 20.1622 32.6362 21.6221 32.1345 23.0141L34.2612 26.0488C34.842 24.8925 35.2946 23.6763 35.6109 22.4216C35.9753 20.9757 36.1592 19.4902 36.1583 17.9991C36.1583 17.6254 36.1479 17.2517 36.1229 16.8845C35.7011 9.97408 31.3789 4.11779 25.3306 1.48798C22.423 0.227886 19.2348 -0.244287 16.0868 0.118946L18.2136 3.15337C19.693 3.15887 21.1633 3.38547 22.5757 3.82566Z" fill="white"/>
<path d="M29.8741 18.0072C29.8741 12.3784 25.8856 7.66371 20.5867 6.53873L29.7613 19.629C29.8369 19.0917 29.8746 18.5498 29.8741 18.0072Z" fill="white"/>
<path d="M34.3741 18.7501C34.3741 7.4626 26.3761 2.38494 15.75 0.129028L34.148 26.379C34.2997 25.3016 34.3752 24.2149 34.3741 23.1268L34.3741 18.7501Z" fill="white"/>
</g>
<path d="M42.375 27.84V15.24H44.535V27.228C44.535 29.148 44.859 30.576 45.507 31.512C46.179 32.424 47.271 32.88 48.783 32.88C50.559 32.88 51.987 32.316 53.067 31.188C54.147 30.036 54.687 28.5 54.687 26.58V15.24H56.847V34.5H54.687V31.404H54.615C53.175 33.708 51.135 34.86 48.495 34.86C46.335 34.86 44.775 34.272 43.815 33.096C42.855 31.896 42.375 30.144 42.375 27.84Z" fill="white"/>
<path d="M66.2993 10.452C65.9633 10.788 65.5673 10.956 65.1113 10.956C64.6553 10.956 64.2592 10.788 63.9232 10.452C63.5872 10.092 63.4193 9.684 63.4193 9.228C63.4193 8.772 63.5872 8.376 63.9232 8.04C64.2592 7.68 64.6553 7.5 65.1113 7.5C65.5673 7.5 65.9633 7.68 66.2993 8.04C66.6353 8.376 66.8032 8.772 66.8032 9.228C66.8032 9.684 66.6353 10.092 66.2993 10.452ZM64.0312 34.5V15.24H66.1913V34.5H64.0312Z" fill="white"/>
<path d="M86.6308 27.984H88.8628C88.7428 30.12 87.9868 31.8 86.5948 33.024C85.2028 34.248 83.3428 34.86 81.0148 34.86C78.1588 34.86 75.9628 33.96 74.4268 32.16C72.8908 30.36 72.1228 27.936 72.1228 24.888C72.1228 21.84 72.8908 19.416 74.4268 17.616C75.9628 15.792 78.1588 14.88 81.0148 14.88C83.3428 14.88 85.2028 15.492 86.5948 16.716C87.9868 17.94 88.7428 19.62 88.8628 21.756H86.6308C86.2948 18.492 84.3868 16.86 80.9068 16.86C78.9148 16.86 77.3188 17.544 76.1188 18.912C74.9428 20.256 74.3548 22.236 74.3548 24.852C74.3548 27.468 74.9428 29.46 76.1188 30.828C77.3188 32.196 78.9148 32.88 80.9068 32.88C84.3868 32.88 86.2948 31.248 86.6308 27.984Z" fill="white"/>
<path d="M94.6523 34.5V7.86H96.8123V23.952L106.208 15.24H109.232L99.7283 23.988L110.204 34.5H107.18L96.8123 24.024V34.5H94.6523Z" fill="white"/>
<path d="M124.371 26.94H126.855C127.239 30.684 129.639 32.556 134.055 32.556C135.999 32.556 137.511 32.16 138.591 31.368C139.695 30.576 140.247 29.364 140.247 27.732C140.247 26.604 139.971 25.668 139.419 24.924C138.867 24.18 138.147 23.628 137.259 23.268C136.371 22.908 135.387 22.608 134.307 22.368C133.227 22.104 132.147 21.828 131.067 21.54C129.987 21.228 129.003 20.844 128.115 20.388C127.227 19.932 126.507 19.248 125.955 18.336C125.403 17.424 125.127 16.296 125.127 14.952C125.127 12.672 125.859 10.86 127.323 9.516C128.787 8.172 130.827 7.5 133.443 7.5C136.035 7.5 138.135 8.196 139.743 9.588C141.351 10.956 142.275 12.924 142.515 15.492H140.031C139.623 11.7 137.439 9.804 133.479 9.804C131.415 9.804 129.903 10.284 128.943 11.244C127.983 12.204 127.503 13.392 127.503 14.808C127.503 15.864 127.779 16.74 128.331 17.436C128.883 18.132 129.603 18.648 130.491 18.984C131.403 19.32 132.387 19.608 133.443 19.848C134.523 20.088 135.603 20.364 136.683 20.676C137.763 20.964 138.747 21.348 139.635 21.828C140.547 22.308 141.279 23.016 141.831 23.952C142.383 24.888 142.659 26.052 142.659 27.444C142.659 29.82 141.879 31.656 140.319 32.952C138.783 34.224 136.623 34.86 133.839 34.86C130.959 34.86 128.703 34.2 127.071 32.88C125.439 31.56 124.539 29.58 124.371 26.94Z" fill="white"/>
<path d="M150.323 10.452C149.987 10.788 149.591 10.956 149.135 10.956C148.679 10.956 148.283 10.788 147.947 10.452C147.611 10.092 147.443 9.684 147.443 9.228C147.443 8.772 147.611 8.376 147.947 8.04C148.283 7.68 148.679 7.5 149.135 7.5C149.591 7.5 149.987 7.68 150.323 8.04C150.659 8.376 150.827 8.772 150.827 9.228C150.827 9.684 150.659 10.092 150.323 10.452ZM148.055 34.5V15.24H150.215V34.5H148.055Z" fill="white"/>
<path d="M157.406 34.5V7.86H159.566V34.5H157.406Z" fill="white"/>
<path d="M171.186 34.5L163.626 15.24H166.002L172.23 31.8L178.494 15.24H180.87L173.274 34.5H171.186Z" fill="white"/>
<path d="M197.758 28.344H199.99C199.798 30.336 198.982 31.92 197.542 33.096C196.102 34.272 194.278 34.86 192.07 34.86C189.166 34.86 186.982 33.972 185.518 32.196C184.054 30.42 183.322 27.984 183.322 24.888C183.322 21.864 184.054 19.44 185.518 17.616C186.982 15.792 189.106 14.88 191.89 14.88C194.698 14.88 196.762 15.72 198.082 17.4C199.402 19.08 200.062 21.324 200.062 24.132V24.996H185.554C185.578 27.564 186.154 29.52 187.282 30.864C188.41 32.208 189.91 32.88 191.782 32.88C193.414 32.88 194.758 32.52 195.814 31.8C196.894 31.056 197.542 29.904 197.758 28.344ZM185.626 23.052H197.83C197.758 21.132 197.206 19.62 196.174 18.516C195.166 17.412 193.774 16.86 191.998 16.86C190.198 16.86 188.746 17.376 187.642 18.408C186.538 19.44 185.866 20.988 185.626 23.052Z" fill="white"/>
<path d="M206.555 34.5V15.24H208.715V18.156H208.787C210.107 15.972 212.039 14.88 214.583 14.88H215.231V17.112C215.015 17.088 214.703 17.076 214.295 17.076C212.567 17.076 211.199 17.616 210.191 18.696C209.207 19.752 208.715 21.24 208.715 23.16V34.5H206.555Z" fill="white"/>
<defs>
<clipPath id="clip0">
<rect width="36.7263" height="36" fill="white"/>
</clipPath>
</defs>
</svg>
