<svg width="81" height="72" viewBox="0 0 81 72" fill="none" xmlns="http://www.w3.org/2000/svg">
<path fill-rule="evenodd" clip-rule="evenodd" d="M23.0735 66L33.542 68.7857V65.1428L34.3966 64.2857H40.3787V68.5714V71.5714H33.9693L26.0645 68.1428L23.0735 66Z" fill="#CDBDB2"/>
<path fill-rule="evenodd" clip-rule="evenodd" d="M57.2566 66L47.0017 68.7857V65.1428L46.1471 64.2857H40.1651V68.5714V71.5714H46.5744L54.4792 68.1428L57.2566 66Z" fill="#CDBDB2"/>
<path fill-rule="evenodd" clip-rule="evenodd" d="M34.3967 58.0714L33.5421 65.1429L34.6103 64.2857H45.7198L47.0017 65.1429L46.1471 58.0714L44.438 57L35.8922 57.2143L34.3967 58.0714Z" fill="#393939"/>
<path fill-rule="evenodd" clip-rule="evenodd" d="M28.6283 10.2857L33.7558 22.2857L36.1058 57.2143H44.4379L47.0017 22.2857L51.7018 10.2857H28.6283Z" fill="#F89C35"/>
<path fill-rule="evenodd" clip-rule="evenodd" d="M6.19566 36.6429L0.213623 54L15.1687 53.1429H24.7827V45.6429L24.3554 30.2143L22.219 31.9286L6.19566 36.6429Z" fill="#F89D35"/>
<path fill-rule="evenodd" clip-rule="evenodd" d="M17.5188 38.5714L35.0376 39L33.1148 48L24.7827 45.8571L17.5188 38.5714Z" fill="#D87C30"/>
<path fill-rule="evenodd" clip-rule="evenodd" d="M17.5188 38.7857L24.7827 45.6429V52.5L17.5188 38.7857Z" fill="#EA8D3A"/>
<path fill-rule="evenodd" clip-rule="evenodd" d="M24.7827 45.8571L33.3285 48L36.1059 57.2143L34.1831 58.2857L24.7827 52.7143V45.8571Z" fill="#F89D35"/>
<path fill-rule="evenodd" clip-rule="evenodd" d="M24.7826 52.7143L23.0735 66L34.3966 58.0714L24.7826 52.7143Z" fill="#EB8F35"/>
<path fill-rule="evenodd" clip-rule="evenodd" d="M35.0377 39L36.1059 57.2143L32.9012 47.8929L35.0377 39Z" fill="#EA8E3A"/>
<path fill-rule="evenodd" clip-rule="evenodd" d="M14.9551 52.9286L24.7827 52.7143L23.0735 66L14.9551 52.9286Z" fill="#D87C30"/>
<path fill-rule="evenodd" clip-rule="evenodd" d="M4.91379 71.7857L23.0735 66L14.9551 52.9286L0.213623 54L4.91379 71.7857Z" fill="#EB8F35"/>
<path fill-rule="evenodd" clip-rule="evenodd" d="M33.7557 22.2857L24.5691 30L17.5188 38.5714L35.0376 39.2143L33.7557 22.2857Z" fill="#E8821E"/>
<path fill-rule="evenodd" clip-rule="evenodd" d="M23.0735 66L34.3966 58.0714L33.542 64.9286V68.7857L25.8509 67.2857L23.0735 66Z" fill="#DFCEC3"/>
<path fill-rule="evenodd" clip-rule="evenodd" d="M57.2566 66L46.1471 58.0714L47.0017 64.9286V68.7857L54.6929 67.2857L57.2566 66Z" fill="#DFCEC3"/>
<path fill-rule="evenodd" clip-rule="evenodd" d="M30.3375 42.8571L32.6876 47.7857L24.3555 45.6429L30.3375 42.8571Z" fill="#393939"/>
<path fill-rule="evenodd" clip-rule="evenodd" d="M4.70007 0.214279L33.7557 22.2857L28.8419 10.2857L4.70007 0.214279Z" fill="#E88F35"/>
<path fill-rule="evenodd" clip-rule="evenodd" d="M4.70009 0.214279L0.854492 12L2.99093 24.8571L1.49542 25.7143L3.63187 27.6428L1.92271 29.1428L4.2728 31.2857L2.77729 32.5714L6.19559 36.8571L22.2189 31.9286C22.2189 31.9286 33.9693 22.5 33.7557 22.2857C33.542 22.0714 4.70009 0.214279 4.70009 0.214279Z" fill="#8E5A30"/>
<path fill-rule="evenodd" clip-rule="evenodd" d="M74.1344 36.6429L80.1165 54L65.1614 53.1429H55.5474V45.6429L55.9747 30.2143L58.1111 31.9286L74.1344 36.6429Z" fill="#F89D35"/>
<path fill-rule="evenodd" clip-rule="evenodd" d="M62.8113 38.5714L45.2925 39L47.2153 48L55.5474 45.8571L62.8113 38.5714Z" fill="#D87C30"/>
<path fill-rule="evenodd" clip-rule="evenodd" d="M62.8113 38.7857L55.5474 45.6429V52.5L62.8113 38.7857Z" fill="#EA8D3A"/>
<path fill-rule="evenodd" clip-rule="evenodd" d="M55.5474 45.8571L47.0016 48L44.2242 57.2143L46.147 58.2857L55.5474 52.7143V45.8571Z" fill="#F89D35"/>
<path fill-rule="evenodd" clip-rule="evenodd" d="M55.5474 52.7143L57.2566 66L46.1471 58.2857L55.5474 52.7143Z" fill="#EB8F35"/>
<path fill-rule="evenodd" clip-rule="evenodd" d="M45.2924 39L44.2242 57.2143L47.4288 47.8929L45.2924 39Z" fill="#EA8E3A"/>
<path fill-rule="evenodd" clip-rule="evenodd" d="M65.375 52.9286L55.5474 52.7143L57.2565 66L65.375 52.9286Z" fill="#D87C30"/>
<path fill-rule="evenodd" clip-rule="evenodd" d="M75.4163 71.7857L57.2565 66L65.375 52.9286L80.1165 54L75.4163 71.7857Z" fill="#EB8F35"/>
<path fill-rule="evenodd" clip-rule="evenodd" d="M46.5743 22.2857L55.761 30L62.8113 38.5714L45.2925 39.2143L46.5743 22.2857Z" fill="#E8821E"/>
<path fill-rule="evenodd" clip-rule="evenodd" d="M49.9925 42.8571L47.6425 47.7857L55.9746 45.6429L49.9925 42.8571Z" fill="#393939"/>
<path fill-rule="evenodd" clip-rule="evenodd" d="M75.63 0.214279L46.5744 22.2857L51.4882 10.2857L75.63 0.214279Z" fill="#E88F35"/>
<path fill-rule="evenodd" clip-rule="evenodd" d="M75.63 0.214279L79.4756 12L77.3391 24.8571L78.8347 25.7143L76.6982 27.6428L78.4074 29.1428L76.0573 31.2857L77.5528 32.5714L74.1345 36.8571L58.1112 31.9286C58.1112 31.9286 46.3607 22.5 46.5744 22.2857C46.788 22.0714 75.63 0.214279 75.63 0.214279Z" fill="#8E5A30"/>
</svg>
