<svg width="66" height="72" viewBox="0 0 66 72" fill="none" xmlns="http://www.w3.org/2000/svg">
<path d="M31.198 21.5399C30.5323 21.5399 29.9927 22.0795 29.9927 22.7452V36.9239C29.9927 37.5896 30.5323 38.1292 31.198 38.1292C31.8636 38.1292 32.4034 37.5896 32.4034 36.9239V22.7452C32.4034 22.0795 31.8638 21.5399 31.198 21.5399Z" fill="#515B6A"/>
<path d="M38.6919 26.9194C38.0263 26.9194 37.4866 27.459 37.4866 28.1248V36.9239C37.4866 37.5896 38.0263 38.1292 38.6919 38.1292C39.3575 38.1292 39.8973 37.5896 39.8973 36.9239V28.1248C39.8973 27.459 39.3575 26.9194 38.6919 26.9194Z" fill="#515B6A"/>
<path d="M23.1163 26.9194C22.4505 26.9194 21.9109 27.459 21.9109 28.1248V36.9239C21.9109 37.5896 22.4505 38.1292 23.1163 38.1292C23.782 38.1292 24.3216 37.5896 24.3216 36.9239V28.1248C24.3216 27.459 23.782 26.9194 23.1163 26.9194Z" fill="#515B6A"/>
<path d="M14.5848 42.9507L19.7509 61.031L21.8169 68.2631H39.8973L41.9633 61.031L47.1294 42.9507H14.5848Z" fill="#515B6A"/>
<path d="M19.7509 61.031L21.8169 68.2631C17.8224 68.2631 14.5848 65.0255 14.5848 61.031H19.7509Z" fill="#7D899E"/>
<path d="M41.9633 61.031H47.1294C47.1294 65.0255 43.8918 68.2631 39.8973 68.2631L41.9633 61.031Z" fill="#7D899E"/>
<path d="M31.2356 48.9774C28.0306 48.9774 25.433 51.575 25.433 54.78C25.433 57.9852 28.0306 60.5827 31.2356 60.5827C34.4408 60.5827 37.0383 57.9852 37.0383 54.78C37.0382 51.575 34.4407 48.9774 31.2356 48.9774Z" fill="white"/>
<path d="M49.5402 36.9239V42.9506H47.1294H14.5848H12.1741V36.9239H23.1163H31.1982H38.6919H49.5402Z" fill="#687589"/>
<path d="M56.4191 22.8127C56.6373 23.0309 56.7723 23.3322 56.7723 23.6649C56.7723 24.3303 56.2323 24.8703 55.5669 24.8703C55.2343 24.8703 54.9329 24.7353 54.7147 24.5171C54.4966 24.2989 54.3616 23.9976 54.3616 23.6649C54.3616 23.3322 54.4966 23.0309 54.7147 22.8127C54.933 22.5946 55.2344 22.4596 55.5669 22.4596C55.8995 22.4596 56.201 22.5946 56.4191 22.8127Z" fill="#7D899E"/>
<path d="M56.4191 26.4288C56.6373 26.647 56.7723 26.9483 56.7723 27.281C56.7723 27.9464 56.2323 28.4864 55.5669 28.4864C55.2343 28.4864 54.9329 28.3514 54.7147 28.1332C54.4966 27.915 54.3616 27.6137 54.3616 27.281C54.3616 26.9483 54.4966 26.647 54.7147 26.4288C54.933 26.2107 55.2344 26.0757 55.5669 26.0757C55.8995 26.0757 56.201 26.2107 56.4191 26.4288Z" fill="#7D899E"/>
<path d="M56.4191 30.0449C56.6373 30.2631 56.7723 30.5644 56.7723 30.8971C56.7723 31.5624 56.2323 32.1024 55.5669 32.1024C55.2343 32.1024 54.9329 31.9674 54.7147 31.7493C54.4966 31.5311 54.3616 31.2297 54.3616 30.8971C54.3616 30.5644 54.4966 30.2631 54.7147 30.0449C54.933 29.8267 55.2344 29.6917 55.5669 29.6917C55.8995 29.6917 56.201 29.8267 56.4191 30.0449Z" fill="#7D899E"/>
<path d="M56.4191 33.6609C56.6373 33.8791 56.7723 34.1804 56.7723 34.5131C56.7723 35.1785 56.2323 35.7185 55.5669 35.7185C55.2343 35.7185 54.9329 35.5835 54.7147 35.3653C54.4966 35.1471 54.3616 34.8458 54.3616 34.5131C54.3616 34.1804 54.4966 33.8791 54.7147 33.6609C54.933 33.4428 55.2344 33.3078 55.5669 33.3078C55.8995 33.3078 56.201 33.4428 56.4191 33.6609Z" fill="#7D899E"/>
<path d="M56.4191 37.277C56.6373 37.4952 56.7723 37.7965 56.7723 38.1292C56.7723 38.7945 56.2323 39.3345 55.5669 39.3345C55.2343 39.3345 54.9329 39.1995 54.7147 38.9814C54.4966 38.7632 54.3616 38.4619 54.3616 38.1292C54.3616 37.7965 54.4966 37.4952 54.7147 37.277C54.933 37.0588 55.2344 36.9238 55.5669 36.9238C55.8995 36.9238 56.201 37.0588 56.4191 37.277Z" fill="#7D899E"/>
<path d="M56.4191 40.8931C56.6373 41.1114 56.7723 41.4127 56.7723 41.7453C56.7723 42.4106 56.2323 42.9506 55.5669 42.9506C55.2343 42.9506 54.9329 42.8156 54.7147 42.5975C54.4966 42.3792 54.3616 42.0778 54.3616 41.7453C54.3616 41.4127 54.4966 41.1113 54.7147 40.8931C54.933 40.6749 55.2344 40.5399 55.5669 40.5399C55.8995 40.5399 56.201 40.6749 56.4191 40.8931Z" fill="#7D899E"/>
<path d="M56.4191 44.5092C56.6373 44.7275 56.7723 45.0288 56.7723 45.3614C56.7723 46.0267 56.2323 46.5667 55.5669 46.5667C55.2343 46.5667 54.9329 46.4317 54.7147 46.2136C54.4966 45.9953 54.3616 45.6939 54.3616 45.3614C54.3616 45.0288 54.4966 44.7273 54.7147 44.5092C54.933 44.291 55.2344 44.156 55.5669 44.156C55.8995 44.156 56.201 44.291 56.4191 44.5092Z" fill="#7D899E"/>
<path d="M56.4191 48.1252C56.6373 48.3435 56.7723 48.6449 56.7723 48.9774C56.7723 49.6428 56.2323 50.1828 55.5669 50.1828C55.2343 50.1828 54.9329 50.0478 54.7147 49.8296C54.4966 49.6113 54.3616 49.31 54.3616 48.9774C54.3616 48.6449 54.4966 48.3434 54.7147 48.1252C54.933 47.9071 55.2344 47.7721 55.5669 47.7721C55.8995 47.7721 56.201 47.9071 56.4191 48.1252Z" fill="#7D899E"/>
<path d="M56.4191 51.7413C56.6373 51.9596 56.7723 52.2609 56.7723 52.5935C56.7723 53.2588 56.2323 53.7988 55.5669 53.7988C55.2343 53.7988 54.9329 53.6638 54.7147 53.4457C54.4966 53.2274 54.3616 52.926 54.3616 52.5935C54.3616 52.2609 54.4966 51.9595 54.7147 51.7413C54.933 51.5231 55.2344 51.3881 55.5669 51.3881C55.8995 51.3881 56.201 51.5231 56.4191 51.7413Z" fill="#7D899E"/>
<path d="M56.4191 55.3574C56.6373 55.5757 56.7723 55.877 56.7723 56.2096C56.7723 56.875 56.2323 57.415 55.5669 57.415C55.2343 57.415 54.9329 57.28 54.7147 57.0618C54.4966 56.8435 54.3616 56.5422 54.3616 56.2096C54.3616 55.877 54.4966 55.5756 54.7147 55.3574C54.933 55.1392 55.2344 55.0042 55.5669 55.0042C55.8995 55.0042 56.201 55.1392 56.4191 55.3574Z" fill="#7D899E"/>
<path d="M52.803 55.3574C53.0212 55.5757 53.1562 55.877 53.1562 56.2096C53.1562 56.875 52.6162 57.415 51.9508 57.415C51.6182 57.415 51.3168 57.28 51.0987 57.0618C50.8805 56.8435 50.7455 56.5422 50.7455 56.2096C50.7455 55.877 50.8805 55.5756 51.0987 55.3574C51.317 55.1392 51.6183 55.0042 51.9508 55.0042C52.2834 55.0042 52.5849 55.1392 52.803 55.3574Z" fill="#7D899E"/>
<path d="M49.187 55.3574C49.4052 55.5757 49.5402 55.877 49.5402 56.2096C49.5402 56.875 49.0002 57.415 48.3348 57.415C48.0021 57.415 47.7008 57.28 47.4826 57.0618C47.2645 56.8435 47.1295 56.5422 47.1295 56.2096C47.1295 55.877 47.2645 55.5756 47.4826 55.3574C47.7009 55.1392 48.0023 55.0042 48.3348 55.0042C48.6674 55.0042 48.9688 55.1392 49.187 55.3574Z" fill="#7D899E"/>
<path d="M31.5212 56.6459C31.9865 56.6278 32.2179 56.4687 32.2179 56.1662C32.2179 56.0095 32.1551 55.8867 32.0287 55.7985C31.9009 55.7118 31.7322 55.6322 31.5212 55.5587V56.6459ZM31.0947 53.8736V52.7598C30.6728 52.796 30.4605 52.9708 30.4605 53.2854C30.4605 53.436 30.5135 53.5554 30.6196 53.6434C30.7245 53.7301 30.8836 53.8073 31.0947 53.8736ZM31.0947 56.6278V55.4238L30.6606 55.2959C30.3641 55.2055 30.1073 55.1079 29.8904 55.0019C29.6722 54.8957 29.4926 54.774 29.3504 54.6355C29.2093 54.4969 29.1033 54.3366 29.0334 54.1546C28.9647 53.9738 28.9297 53.7628 28.9297 53.5205C28.9297 53.207 28.9839 52.9274 29.0924 52.6828C29.2021 52.4381 29.348 52.2283 29.5324 52.0535C29.7168 51.8775 29.9338 51.7401 30.1845 51.6413C30.4352 51.5412 30.7052 51.4762 30.9957 51.4461V50.5311H31.6201V51.4461C32.013 51.4823 32.3819 51.5701 32.7254 51.7089C33.0701 51.8474 33.369 51.9897 33.6222 52.1344L32.9701 53.3662C32.952 53.3421 32.8989 53.3035 32.812 53.2493C32.7242 53.1951 32.612 53.136 32.4771 53.072C32.3407 53.0093 32.1901 52.9491 32.0237 52.8912C31.8574 52.8335 31.6899 52.7925 31.5211 52.7683V54.0012L31.8104 54.0737C32.119 54.1581 32.3961 54.2497 32.6445 54.3497C32.8916 54.4497 33.1013 54.5727 33.2737 54.721C33.4462 54.8691 33.5786 55.0488 33.6728 55.2597C33.7656 55.4719 33.8125 55.725 33.8125 56.0215C33.8125 56.3651 33.7522 56.6578 33.6317 56.9002C33.5112 57.1413 33.3496 57.339 33.1471 57.4933C32.9446 57.6474 32.712 57.7632 32.4492 57.8416C32.1865 57.9201 31.9104 57.9658 31.6199 57.9778V59.0289H30.9956V57.9694C30.5785 57.932 30.1663 57.8477 29.7589 57.7152C29.3503 57.5825 28.9838 57.4078 28.6584 57.1896L29.3105 55.8939C29.3346 55.9252 29.3997 55.9746 29.5045 56.0433C29.6106 56.1133 29.7444 56.1856 29.9083 56.2615C30.0711 56.3375 30.2555 56.4098 30.4604 56.4786C30.6666 56.5483 30.8776 56.5977 31.0947 56.6278Z" fill="#7D899E"/>
<path d="M14.2316 55.3574C14.4498 55.5757 14.5848 55.877 14.5848 56.2096C14.5848 56.875 14.0448 57.415 13.3794 57.415C13.0468 57.415 12.7454 57.28 12.5272 57.0618C12.3091 56.8435 12.1741 56.5422 12.1741 56.2096C12.1741 55.877 12.3091 55.5756 12.5272 55.3574C12.7454 55.1392 13.0468 55.0042 13.3794 55.0042C13.7121 55.0042 14.0135 55.1392 14.2316 55.3574Z" fill="#7D899E"/>
<path d="M11.7606 28.9854L10.0562 30.6898L8.35065 28.9854L10.0562 27.281L11.7606 28.9854Z" fill="#7D899E"/>
<path d="M10.0562 30.6898L11.7606 32.3953L10.0562 34.0997L8.35065 32.3953L10.0562 30.6898Z" fill="#7D899E"/>
<path d="M10.6155 55.3574C10.8337 55.5757 10.9687 55.877 10.9687 56.2096C10.9687 56.875 10.4287 57.415 9.76335 57.415C9.43068 57.415 9.12934 57.28 8.91117 57.0618C8.693 56.8435 8.558 56.5422 8.558 56.2096C8.558 55.877 8.693 55.5756 8.91117 55.3574C9.12934 55.1392 9.43068 55.0042 9.76335 55.0042C10.096 55.0042 10.3974 55.1392 10.6155 55.3574Z" fill="#7D899E"/>
<path d="M4.93963 28.9841L6.64367 27.2801L8.34779 28.9842L6.64375 30.6882L4.93963 28.9841Z" fill="#7D899E"/>
<path d="M6.64633 30.6898L8.35071 32.3953L6.64633 34.0997L4.94196 32.3953L6.64633 30.6898Z" fill="#7D899E"/>
<path d="M6.9995 55.3574C7.21767 55.5757 7.35267 55.877 7.35267 56.2096C7.35267 56.875 6.81267 57.415 6.14732 57.415C5.81464 57.415 5.5133 57.28 5.29513 57.0618C5.07696 56.8435 4.94196 56.5422 4.94196 56.2096C4.94196 55.877 5.07696 55.5756 5.29513 55.3574C5.5133 55.1392 5.81464 55.0042 6.14732 55.0042C6.48 55.0042 6.78133 55.1392 6.9995 55.3574Z" fill="#7D899E"/>
<path d="M6.9995 48.1252C7.21767 48.3435 7.35267 48.6449 7.35267 48.9774C7.35267 49.6428 6.81267 50.1828 6.14732 50.1828C5.81464 50.1828 5.5133 50.0478 5.29513 49.8296C5.07696 49.6113 4.94196 49.31 4.94196 48.9774C4.94196 48.6449 5.07696 48.3434 5.29513 48.1252C5.5133 47.9071 5.81464 47.7721 6.14732 47.7721C6.48 47.7721 6.78133 47.9071 6.9995 48.1252Z" fill="#7D899E"/>
<path d="M6.9995 51.7413C7.21767 51.9596 7.35267 52.2609 7.35267 52.5935C7.35267 53.2588 6.81267 53.7988 6.14732 53.7988C5.81464 53.7988 5.5133 53.6638 5.29513 53.4457C5.07696 53.2274 4.94196 52.926 4.94196 52.5935C4.94196 52.2609 5.07696 51.9595 5.29513 51.7413C5.5133 51.5231 5.81464 51.3881 6.14732 51.3881C6.48 51.3881 6.78133 51.5231 6.9995 51.7413Z" fill="#7D899E"/>
<path d="M54.3616 69.4685H7.35265C6.68693 69.4685 6.14729 68.9287 6.14729 68.2631C6.14729 67.5975 6.68693 67.0578 7.35265 67.0578H54.3616C55.0272 67.0578 55.5669 67.5975 55.5669 68.2631C55.5669 68.9287 55.0272 69.4685 54.3616 69.4685Z" fill="#515B6A"/>
<path d="M48.4288 23.5781C47.7272 25.972 46.2603 27.8632 44.1532 28.7371C42.0464 29.6134 39.6729 29.318 37.4864 28.1247C38.1867 25.7321 39.6536 23.8421 41.7606 22.9658C43.8689 22.0907 46.241 22.386 48.4288 23.5781Z" fill="#818793"/>
<path d="M20.0463 22.9658C22.1545 23.8421 23.6202 25.7321 24.3217 28.1247C22.134 29.318 19.7618 29.6134 17.6537 28.7371C15.5479 27.8632 14.0798 25.972 13.3795 23.5781C15.566 22.386 17.9393 22.0907 20.0463 22.9658Z" fill="#818793"/>
<path d="M41.0317 12.8854C41.3487 15.7988 40.6062 18.512 38.7125 20.4105C36.8189 22.3089 34.1094 23.0562 31.1984 22.7452C30.8825 19.8319 31.6238 17.1198 33.5175 15.2202C35.4111 13.3218 38.1207 12.5744 41.0317 12.8854Z" fill="#818793"/>
<path d="M28.7383 15.2202C30.6319 17.1198 31.3732 19.8319 31.0574 22.7452C28.1465 23.0562 25.4368 22.3089 23.5432 20.4105C21.6496 18.512 20.9071 15.7988 21.2229 12.8854C24.135 12.5744 26.8447 13.3218 28.7383 15.2202Z" fill="#818793"/>
<path d="M55.7144 1.92856C54.0615 1.92856 52.4457 2.4187 51.0714 3.33699C49.6971 4.25529 48.6259 5.56049 47.9934 7.08756C47.3608 8.61463 47.1953 10.295 47.5178 11.9161C47.8403 13.5372 48.6362 15.0263 49.805 16.1951C50.9737 17.3639 52.4628 18.1598 54.084 18.4823C55.7051 18.8047 57.3854 18.6392 58.9125 18.0067C60.4396 17.3742 61.7448 16.303 62.6631 14.9287C63.5814 13.5544 64.0715 11.9386 64.0715 10.2857C64.0715 8.06925 63.191 5.94358 61.6238 4.37631C60.0565 2.80904 57.9308 1.92856 55.7144 1.92856ZM55.0715 6.42856C55.0715 6.25806 55.1392 6.09455 55.2598 5.97399C55.3804 5.85343 55.5439 5.7857 55.7144 5.7857C55.8849 5.7857 56.0484 5.85343 56.1689 5.97399C56.2895 6.09455 56.3572 6.25806 56.3572 6.42856V10.2857C56.3572 10.4562 56.2895 10.6197 56.1689 10.7403C56.0484 10.8608 55.8849 10.9286 55.7144 10.9286C55.5439 10.9286 55.3804 10.8608 55.2598 10.7403C55.1392 10.6197 55.0715 10.4562 55.0715 10.2857V6.42856ZM55.7144 14.4643C55.5237 14.4643 55.3372 14.4077 55.1786 14.3018C55.0201 14.1958 54.8965 14.0452 54.8235 13.869C54.7505 13.6928 54.7314 13.4989 54.7686 13.3119C54.8058 13.1248 54.8977 12.953 55.0325 12.8181C55.1674 12.6833 55.3392 12.5914 55.5262 12.5542C55.7133 12.517 55.9072 12.5361 56.0834 12.6091C56.2596 12.6821 56.4102 12.8057 56.5161 12.9643C56.6221 13.1228 56.6787 13.3093 56.6787 13.5C56.6787 13.7557 56.5771 14.001 56.3962 14.1818C56.2154 14.3627 55.9701 14.4643 55.7144 14.4643Z" fill="#687589"/>
</svg>
