<svg width="70" height="70" viewBox="0 0 70 70" fill="none" xmlns="http://www.w3.org/2000/svg">
<path d="M69.75 48H60.75V69.375H69.75V48Z" fill="#4F789C"/>
<path d="M55.125 50.25C53.5073 47.0764 48.996 45.75 46.125 45.75C43.254 45.75 39.3401 46.9808 37.125 50.25H27C25.1359 50.25 23.625 51.7609 23.625 53.625C23.625 55.4891 25.1359 57 27 57H23.625L9.55915 48.6412C7.49928 47.4049 4.8319 48.0056 3.4999 50.0036L2.62803 51.3109C1.9384 52.3448 2.21853 53.742 3.2524 54.4316L21.3672 66.369C22.1052 66.8617 22.968 67.125 23.8568 67.125C27.7054 67.125 38.4041 67.125 38.25 67.125H57.375V50.25H55.125Z" fill="#E1ECFF"/>
<path d="M24.5015 55.875C25.1191 56.5613 26.0045 57 27.0001 57H38.2501V55.875H24.5015Z" fill="#4F789C"/>
<path d="M20.4375 40.875C31.7248 40.875 40.875 31.7248 40.875 20.4375C40.875 9.15018 31.7248 0 20.4375 0C9.15018 0 0 9.15018 0 20.4375C0 31.7248 9.15018 40.875 20.4375 40.875Z" fill="#4FDAB8"/>
<path d="M21.6603 19.7388H18.516C17.0718 19.7388 15.8958 18.5628 15.8958 17.1186C15.8958 15.6743 17.0718 14.4984 18.516 14.4984H21.1362C22.8697 14.4984 24.2804 15.9091 24.2804 17.6426H26.3766C26.3766 14.7531 24.0258 12.4022 21.1362 12.4022V10.3061H19.0401V12.4022H18.516C15.9157 12.4022 13.7997 14.5183 13.7997 17.1186C13.7997 19.7189 15.9157 21.8349 18.516 21.8349H21.6603C23.1045 21.8349 24.2804 23.0109 24.2804 24.4551C24.2804 25.8994 23.1045 27.0753 21.6603 27.0753H19.0401C17.3065 27.0753 15.8958 25.6646 15.8958 23.9311H13.7997C13.7997 26.8206 16.1505 29.1715 19.0401 29.1715V31.2676H21.1362V29.1715H21.6603C24.2605 29.1715 26.3766 27.0554 26.3766 24.4551C26.3766 21.8549 24.2605 19.7388 21.6603 19.7388Z" fill="#143C32"/>
<path d="M40.5 42.5C46.7132 42.5 51.75 37.4632 51.75 31.25C51.75 25.0368 46.7132 20 40.5 20C34.2868 20 29.25 25.0368 29.25 31.25C29.25 37.4632 34.2868 42.5 40.5 42.5Z" fill="#4F789C"/>
<path d="M44.0156 38.2812C45.1806 38.2812 46.125 37.3369 46.125 36.1719C46.125 35.0069 45.1806 34.0625 44.0156 34.0625C42.8506 34.0625 41.9062 35.0069 41.9062 36.1719C41.9062 37.3369 42.8506 38.2812 44.0156 38.2812Z" fill="#EDEFF1"/>
<path d="M36.9844 28.4375C38.1494 28.4375 39.0938 27.4931 39.0938 26.3281C39.0938 25.1631 38.1494 24.2188 36.9844 24.2188C35.8194 24.2188 34.875 25.1631 34.875 26.3281C34.875 27.4931 35.8194 28.4375 36.9844 28.4375Z" fill="#EDEFF1"/>
<path d="M45.7555 27.4761L44.1594 25.88L35.1305 34.9089L36.7266 36.505L45.7555 27.4761Z" fill="#EDEFF1"/>
</svg>
