<svg width="72" height="72" viewBox="0 0 72 72" fill="none" xmlns="http://www.w3.org/2000/svg">
<path d="M20.25 13.5H51.75V34.875H20.25V13.5Z" fill="#F2F6FC"/>
<path d="M36 19C32.14 19 29 22.14 29 26C29 29.86 32.14 33 36 33C39.86 33 43 29.86 43 26C43 22.14 39.86 19 36 19Z" fill="#2196F3"/>
<path d="M39.5479 24.5166L35.7561 28.3082C35.6424 28.422 35.4931 28.4792 35.3438 28.4792C35.1944 28.4792 35.0451 28.422 34.9314 28.3082L33.0356 26.4124C32.8074 26.1844 32.8074 25.8156 33.0356 25.5876C33.2636 25.3595 33.6322 25.3595 33.8604 25.5876L35.3438 27.071L38.7231 23.6918C38.9511 23.4637 39.3197 23.4637 39.5479 23.6918C39.7759 23.9198 39.7759 24.2885 39.5479 24.5166V24.5166Z" fill="#FAFAFA"/>
<path d="M58.5 1.125V19.125H51.75V15.75V4.5V1.125H58.5Z" fill="#65AEEF"/>
<path d="M30.375 13.5H23.625V7.875L30.375 1.125H48.375L51.75 4.5V15.75L48.375 19.125H39.375L36 15.75H32.625C32.0296 15.7456 31.4599 15.5071 31.0389 15.0861C30.6179 14.6651 30.3794 14.0954 30.375 13.5Z" fill="#FFDAAA"/>
<path d="M27 13.5C27 12.3065 27.4741 11.1619 28.318 10.318C29.1619 9.47411 30.3065 9 31.5 9H40.5V11.25H32.625C32.0283 11.25 31.456 11.4871 31.034 11.909C30.6121 12.331 30.375 12.9033 30.375 13.5H27Z" fill="#FFB680"/>
<path d="M15.75 41.625H56.25V70.875H15.75V41.625Z" fill="#4FDAB8"/>
<path d="M13.5 34.875H58.5V41.625H13.5V34.875Z" fill="#11A892"/>
<path d="M13.5 34.875H16.875V41.625H13.5V34.875Z" fill="#06CCAB"/>
<path d="M30.375 46.125H41.625V50.625H30.375V46.125Z" fill="#F2F6FC"/>
</svg>
